<svg width="211" height="63" viewBox="0 0 211 63" fill="none" xmlns="http://www.w3.org/2000/svg">
<path fill-rule="evenodd" clip-rule="evenodd" d="M96.9108 28.5001C96.9101 28.5003 96.9095 28.5005 96.9088 28.5007L96.9106 28.5044C96.9106 28.5044 96.9107 28.5029 96.9108 28.5001ZM116.24 31.1711C110.013 26.653 105.708 25.9267 96.9108 28.5001C96.9124 28.466 96.9227 28.2303 96.9347 27.8535C100.564 26.2686 106.536 25.3309 112.53 26.1711C107.837 24.8105 101.795 24.93 96.9661 26.3311V25.6453C100.111 24.2387 105.054 23.301 110.012 23.7791C106.079 22.8101 101.045 23.1006 96.9476 24.3987C96.9448 24.3044 96.9404 24.2107 96.936 24.1174C96.9288 23.965 96.9217 23.8138 96.9217 23.6632C105.099 20.3095 115.668 20.692 123.175 26.024C127.756 26.3771 132.529 24.9484 135.189 21.9147C145.192 10.5151 129.11 0.648944 119.747 7.02168C115.211 -1.22279 98.1094 -3.17727 95.488 9.41191C88.8649 3.90702 78.5029 8.36572 80.5361 16.9154C81.8089 22.2842 89.5124 24.4538 94.9884 23.939C94.9884 23.939 95.5416 27.7968 95.488 33.0718C101.007 26.1711 109.442 27.8535 116.24 31.1711ZM83.9256 16.2907C83.9255 16.301 83.9254 16.3112 83.9253 16.3215H83.9346C83.9316 16.3113 83.9286 16.301 83.9256 16.2907ZM83.9256 16.2907C83.9784 11.7529 88.7701 9.4161 94.3095 11.2671C90.9332 9.08647 85.2832 9.09566 83.9346 13.5323C83.6694 14.4327 83.6664 15.3891 83.9256 16.2907ZM98.7366 9.7447C102.359 3.94195 112.186 4.04492 116.896 8.86032C113.176 2.82038 101.149 1.83487 98.7366 9.7447ZM122.82 8.66174C130.673 8.47788 135.356 13.148 132.536 19.6384C138.087 12.7821 130.148 6.75875 122.82 8.66174ZM96.5869 11.5558C97.0827 -0.884481 115.453 0.4136 119.201 8.87503L119.192 8.88422C124.948 4.54687 135.489 7.51259 135.977 13.889C136.407 19.4527 129.983 24.8418 124.382 24.1063C123.862 24.0383 121.562 22.3615 121.007 21.5451C123.595 19.9712 125.688 17.763 126.905 15.6412C122.866 19.5539 118.955 21.2748 116.24 20.4621C115.439 20.3536 113.143 19.9284 112.093 19.734C111.899 19.6979 111.747 19.6698 111.655 19.6531C109.189 19.2137 108.399 18.1546 108.246 15.5603C107.738 16.9994 107.71 18.3054 108.164 19.4785C103.61 19.134 101.224 16.7358 101.007 12.2839C100.181 15.5432 100.932 18.021 103.258 19.7175C100.055 20.5289 97.428 19.5961 95.377 16.9191C95.5823 18.7191 96.844 20.2911 98.3018 21.148C93.8192 23.2477 85.5126 22.5325 83.0447 17.6656C82.317 16.2686 82.1593 14.6466 82.6044 13.137C84.447 7.075 92.9312 7.8509 96.5869 11.5558ZM7.11725 61.097C9.32489 62.3585 11.8909 62.9893 14.8153 62.9893C16.7076 62.9893 18.4851 62.7169 20.148 62.1721C21.8109 61.5987 23.2875 60.7816 24.5776 59.7208C24.9504 59.4341 25.2084 59.1331 25.3517 58.8177C25.4951 58.4736 25.5668 58.0866 25.5668 57.6565C25.5668 57.0258 25.3948 56.4954 25.0507 56.0653C24.7067 55.6353 24.2909 55.4202 23.8035 55.4202C23.4882 55.4202 23.1871 55.4776 22.9004 55.5922C22.6137 55.7069 22.327 55.8503 22.0403 56.0223C20.7214 56.9111 19.5316 57.5418 18.4708 57.9146C17.4387 58.2873 16.3062 58.4736 15.0733 58.4736C12.0916 58.4736 9.82662 57.5418 8.27841 55.6783C6.75887 53.8147 5.9991 51.0623 5.9991 47.4211C5.9991 43.8086 6.75887 41.0706 8.27841 39.207C9.82662 37.3434 12.0916 36.4116 15.0733 36.4116C16.3635 36.4116 17.539 36.598 18.5998 36.9707C19.6606 37.3147 20.8075 37.9455 22.0403 38.863C22.6424 39.2643 23.2301 39.465 23.8035 39.465C24.2909 39.465 24.7067 39.25 25.0507 38.82C25.3948 38.3899 25.5668 37.8595 25.5668 37.2287C25.5668 36.77 25.4951 36.383 25.3517 36.0676C25.2084 35.7522 24.9504 35.4512 24.5776 35.1645C23.2875 34.1036 21.8109 33.3009 20.148 32.7561C18.4851 32.1827 16.7076 31.896 14.8153 31.896C11.8909 31.896 9.32489 32.5268 7.11725 33.7883C4.93829 35.0498 3.26106 36.856 2.08557 39.207C0.910072 41.5293 0.322327 44.2674 0.322327 47.4211C0.322327 50.5749 0.910072 53.3273 2.08557 55.6783C3.26106 58.0292 4.93829 59.8355 7.11725 61.097ZM49.6386 49.7004C49.6386 43.9377 47.173 41.0563 42.2416 41.0563C40.7221 41.0563 39.3602 41.3573 38.1561 41.9594C36.9806 42.5328 36.0345 43.3786 35.3177 44.4967V34.4764C35.3177 33.7309 35.074 33.1432 34.5866 32.7131C34.0992 32.2831 33.4541 32.068 32.6513 32.068C31.8485 32.068 31.1891 32.2974 30.6731 32.7561C30.1857 33.2149 29.942 33.8169 29.942 34.5624V60.2799C29.942 61.0827 30.1713 61.7134 30.63 62.1721C31.1174 62.6309 31.7769 62.8602 32.6083 62.8602C33.4398 62.8602 34.0992 62.6309 34.5866 62.1721C35.074 61.7134 35.3177 61.0827 35.3177 60.2799V50.6896C35.3177 49.0554 35.7764 47.7508 36.6939 46.776C37.64 45.8012 38.8872 45.3138 40.4354 45.3138C41.7542 45.3138 42.7147 45.6722 43.3168 46.389C43.9475 47.0771 44.2629 48.1809 44.2629 49.7004V60.2799C44.2629 61.0827 44.5066 61.7134 44.994 62.1721C45.4814 62.6309 46.1408 62.8602 46.9723 62.8602C47.8037 62.8602 48.4488 62.6309 48.9075 62.1721C49.3949 61.7134 49.6386 61.0827 49.6386 60.2799V49.7004ZM72.9031 57.3985C72.6164 57.0258 72.2294 56.8394 71.742 56.8394C71.3406 56.8394 70.7098 57.0688 69.8497 57.5275C68.9609 57.9289 68.1582 58.2443 67.4414 58.4736C66.7533 58.703 65.9505 58.8177 65.0331 58.8177C63.2268 58.8177 61.8506 58.359 60.9045 57.4415C59.9584 56.4954 59.3993 55.0332 59.2273 53.0549H71.914C73.0035 53.0549 73.5482 52.4385 73.5482 51.2056C73.5482 49.1414 73.1612 47.3495 72.3871 45.8299C71.613 44.3104 70.5235 43.1349 69.1186 42.3034C67.7138 41.472 66.0652 41.0563 64.173 41.0563C62.1947 41.0563 60.4171 41.515 58.8402 42.4324C57.292 43.3499 56.0878 44.6401 55.2277 46.303C54.3676 47.9659 53.9376 49.8725 53.9376 52.0228C53.9376 55.4059 54.9267 58.0723 56.905 60.0219C58.8832 61.9715 61.5639 62.9463 64.9471 62.9463C66.0652 62.9463 67.2407 62.7886 68.4735 62.4732C69.7064 62.1291 70.8102 61.6847 71.785 61.14C72.8458 60.5379 73.3762 59.7925 73.3762 58.9037C73.3762 58.2729 73.2185 57.7712 72.9031 57.3985ZM60.7755 46.217C61.6643 45.2995 62.8398 44.8408 64.302 44.8408C65.7355 44.8408 66.8537 45.2995 67.6564 46.217C68.4592 47.1058 68.8893 48.4246 68.9466 50.1735H59.2273C59.3993 48.4533 59.9154 47.1344 60.7755 46.217ZM85.5606 37.4868C86.1627 36.77 87.1232 36.3686 88.442 36.2826L89.5602 36.1966C90.9651 36.0532 91.6675 35.3651 91.6675 34.1323C91.6675 33.4442 91.4238 32.9425 90.9364 32.6271C90.4777 32.2831 89.6749 32.154 88.5281 32.2401L87.4099 32.3261C84.8296 32.5268 82.8226 33.4012 81.3891 34.9494C79.9842 36.469 79.2818 38.5763 79.2818 41.2713V41.5723H77.1315C75.5259 41.5723 74.7232 42.2461 74.7232 43.5936C74.7232 44.9411 75.5259 45.6149 77.1315 45.6149H79.2818V60.2799C79.2818 61.1113 79.5398 61.7421 80.0559 62.1721C80.572 62.6022 81.2171 62.8172 81.9912 62.8172C82.7653 62.8172 83.396 62.6022 83.8834 62.1721C84.3995 61.7421 84.6575 61.1113 84.6575 60.2799V45.6149H88.313C89.9186 45.6149 90.7214 44.9411 90.7214 43.5936C90.7214 42.2461 89.9186 41.5723 88.313 41.5723H84.6575V40.5832C84.6575 39.2357 84.9586 38.2035 85.5606 37.4868ZM99.5117 61.097C101.547 62.3298 103.941 62.9463 106.694 62.9463C109.475 62.9463 111.883 62.3298 113.919 61.097C115.954 59.8355 117.517 58.0436 118.606 55.7213C119.696 53.3703 120.241 50.6036 120.241 47.4211C120.241 44.2387 119.696 41.4863 118.606 39.164C117.517 36.8417 115.954 35.0641 113.919 33.8313C111.883 32.5698 109.475 31.939 106.694 31.939C103.913 31.939 101.504 32.5698 99.4687 33.8313C97.4617 35.0641 95.9135 36.856 94.824 39.207C93.7346 41.5293 93.1898 44.2817 93.1898 47.4641C93.1898 50.6179 93.7346 53.3703 94.824 55.7213C95.9135 58.0436 97.4761 59.8355 99.5117 61.097ZM114.65 57.1405C112.757 59.4341 110.105 60.5809 106.694 60.5809C103.282 60.5809 100.63 59.4341 98.7376 57.1405C96.874 54.8181 95.9422 51.5784 95.9422 47.4211C95.9422 43.2639 96.874 40.0385 98.7376 37.7448C100.63 35.4512 103.282 34.3043 106.694 34.3043C110.134 34.3043 112.786 35.4512 114.65 37.7448C116.542 40.0098 117.488 43.2352 117.488 47.4211C117.488 51.607 116.542 54.8468 114.65 57.1405ZM143.715 49.3134C143.715 43.9233 141.206 41.2283 136.189 41.2283C134.554 41.2283 133.107 41.5867 131.845 42.3034C130.612 42.9915 129.666 43.995 129.007 45.3138V42.6045C129.007 42.2031 128.892 41.8877 128.663 41.6583C128.433 41.429 128.132 41.3143 127.759 41.3143C127.358 41.3143 127.028 41.4433 126.77 41.7013C126.541 41.9307 126.426 42.2461 126.426 42.6475V61.4841C126.426 61.8854 126.541 62.2152 126.77 62.4732C127.028 62.7026 127.358 62.8172 127.759 62.8172C128.161 62.8172 128.476 62.7026 128.706 62.4732C128.935 62.2152 129.05 61.8854 129.05 61.4841V50.5176C129.05 48.3959 129.666 46.7044 130.899 45.4429C132.16 44.1814 133.823 43.5506 135.888 43.5506C137.694 43.5506 139.013 44.0237 139.844 44.9698C140.676 45.9159 141.091 47.4211 141.091 49.4854V61.4841C141.091 61.8854 141.206 62.2152 141.435 62.4732C141.693 62.7026 142.023 62.8172 142.424 62.8172C142.826 62.8172 143.141 62.7026 143.371 62.4732C143.6 62.2152 143.715 61.8854 143.715 61.4841V49.3134ZM150.877 62.4732C151.135 62.7026 151.465 62.8172 151.866 62.8172C152.239 62.8172 152.54 62.7026 152.769 62.4732C153.027 62.2438 153.156 61.9141 153.156 61.4841V33.4012C153.156 32.9712 153.027 32.6414 152.769 32.4121C152.54 32.1827 152.239 32.068 151.866 32.068C151.465 32.068 151.135 32.1827 150.877 32.4121C150.648 32.6414 150.533 32.9712 150.533 33.4012V61.4841C150.533 61.9141 150.648 62.2438 150.877 62.4732ZM160.411 62.4732C160.669 62.7026 160.998 62.8172 161.4 62.8172C161.801 62.8172 162.117 62.7026 162.346 62.4732C162.575 62.2438 162.69 61.9141 162.69 61.4841V42.6475C162.69 42.2174 162.575 41.8877 162.346 41.6583C162.117 41.429 161.801 41.3143 161.4 41.3143C160.998 41.3143 160.669 41.429 160.411 41.6583C160.181 41.8877 160.067 42.2174 160.067 42.6475V61.4841C160.067 61.9141 160.181 62.2438 160.411 62.4732ZM159.981 35.9386C160.353 36.2826 160.826 36.4546 161.4 36.4546C161.973 36.4546 162.432 36.2826 162.776 35.9386C163.149 35.5945 163.335 35.1501 163.335 34.6054C163.335 34.032 163.149 33.5732 162.776 33.2292C162.432 32.8851 161.973 32.7131 161.4 32.7131C160.826 32.7131 160.353 32.8851 159.981 33.2292C159.637 33.5732 159.465 34.032 159.465 34.6054C159.465 35.1501 159.637 35.5945 159.981 35.9386ZM186.889 49.3134C186.889 43.9233 184.38 41.2283 179.363 41.2283C177.728 41.2283 176.28 41.5867 175.019 42.3034C173.786 42.9915 172.84 43.995 172.181 45.3138V42.6045C172.181 42.2031 172.066 41.8877 171.836 41.6583C171.607 41.429 171.306 41.3143 170.933 41.3143C170.532 41.3143 170.202 41.4433 169.944 41.7013C169.715 41.9307 169.6 42.2461 169.6 42.6475V61.4841C169.6 61.8854 169.715 62.2152 169.944 62.4732C170.202 62.7026 170.532 62.8172 170.933 62.8172C171.335 62.8172 171.65 62.7026 171.879 62.4732C172.109 62.2152 172.224 61.8854 172.224 61.4841V50.5176C172.224 48.3959 172.84 46.7044 174.073 45.4429C175.334 44.1814 176.997 43.5506 179.061 43.5506C180.868 43.5506 182.187 44.0237 183.018 44.9698C183.849 45.9159 184.265 47.4211 184.265 49.4854V61.4841C184.265 61.8854 184.38 62.2152 184.609 62.4732C184.867 62.7026 185.197 62.8172 185.598 62.8172C186 62.8172 186.315 62.7026 186.544 62.4732C186.774 62.2152 186.889 61.8854 186.889 61.4841V49.3134ZM210.35 58.4736C210.178 58.2443 209.963 58.1296 209.705 58.1296C209.447 58.1296 209.003 58.3446 208.372 58.7747C207.426 59.3194 206.537 59.7638 205.706 60.1079C204.874 60.4232 203.842 60.5809 202.609 60.5809C200.258 60.5809 198.438 59.8928 197.147 58.5166C195.857 57.1405 195.169 55.1335 195.083 52.4958H209.404C209.92 52.4958 210.293 52.3811 210.522 52.1518C210.752 51.8937 210.866 51.5067 210.866 50.9906C210.866 47.9515 210.078 45.5719 208.501 43.8516C206.953 42.1027 204.831 41.2283 202.136 41.2283C200.215 41.2283 198.509 41.687 197.018 42.6045C195.556 43.4933 194.409 44.7691 193.578 46.432C192.775 48.0662 192.374 49.9585 192.374 52.1088C192.374 55.4632 193.291 58.1009 195.126 60.0219C196.961 61.9428 199.47 62.9032 202.652 62.9032C204.946 62.9032 207.125 62.2868 209.189 61.054C210.164 60.4519 210.651 59.8355 210.651 59.2047C210.651 58.918 210.551 58.6743 210.35 58.4736ZM197.319 45.2708C198.524 44.0093 200.129 43.3786 202.136 43.3786C204.114 43.3786 205.648 44.0093 206.738 45.2708C207.827 46.5037 208.401 48.2669 208.458 50.5606H195.169C195.399 48.2956 196.115 46.5323 197.319 45.2708Z" fill="#C10000"/>
</svg>
